<mxfile host="app.diagrams.net" modified="2023-09-12T02:12:00.665Z" agent="Mozilla/5.0 (Windows NT 10.0; Win64; x64) AppleWebKit/537.36 (KHTML, like Gecko) Chrome/116.0.0.0 Safari/537.36" version="21.7.4" etag="H76UoUL1MOfxtexJeD8B" type="github">
  <diagram name="PÃ¡gina-1" id="Dt8R9QOGbHNzYa77C-AX">
    <mxGraphModel>
      <root>
        <mxCell id="0" />
        <mxCell id="1" parent="0" />
      </root>
    </mxGraphModel>
  </diagram>
</mxfile>
